<?xml version="1.0" encoding="UTF-8"?>
<svg width="356px" height="217px" viewBox="0 0 356 217" version="1.1" xmlns="http://www.w3.org/2000/svg" xmlns:xlink="http://www.w3.org/1999/xlink">
    <!-- Generator: Sketch 50 (54983) - http://www.bohemiancoding.com/sketch -->
    <title>logo</title>
    <desc>Created with Sketch.</desc>
    <defs></defs>
    <g id="logo" stroke="none" stroke-width="1" fill="none" fill-rule="evenodd">
        <path d="M295.669213,59.6152428 C257.934296,27.0180646 204.577355,8.90181423 154.240135,10.9550359 C105.138183,13.0082576 74.3855589,24.9093731 39.4892034,51.9434589 C-12.8553297,92.4945875 -22.5965957,158.043515 -15.9241825,162.283669" id="Path" stroke="#000000" stroke-width="2" fill="#FFFFFF" transform="translate(138.944909, 86.540593) rotate(-14.000000) translate(-138.944909, -86.540593) "></path>
        <path d="M30.0423148,203.440736 L5.22612939,180.121437 L20.3445377,140.282517 L15.3131178,97.9695091 L52.5024547,77.1690513 L75.8464407,41.5212723 L104.802458,47.0350677 L113.502455,42.1690513 L136.846441,6.52127232 L178.705402,14.4920422 L187.811407,11.7460419 L199.591463,2.54312817 L205.087832,6.53617519 L219.501884,2.18948411 L239.042515,26.1325982 L267.900094,29.1642745 L272.690563,46.4612868 L285.604046,52.0010363 L285.272594,76.3101228 L305.217033,98.9391034 L297.58518,119.49718 L303.034005,130.292833 L30.0423148,203.440736 Z" id="Combined-Shape" stroke="#979797" fill="#000000"></path>
        <path d="M319.458936,51.1003086 C317.279826,55.3446378 316.687276,60.408891 318.192376,65.3318501 C318.571751,66.5727315 319.066635,67.7465302 319.661633,68.8450612 C319.010456,71.8971133 319.103499,75.1526085 320.080598,78.3485553 C320.859346,80.8957242 322.1248,83.1602319 323.743817,85.0712852 C323.470238,87.5609631 323.687426,90.1459577 324.466174,92.6931267 C325.721709,96.7997967 328.242361,100.171732 331.470158,102.512254 C331.470226,104.351823 331.739591,106.222492 332.305407,108.073192 C333.907712,113.314095 337.570473,117.358359 342.133947,119.589339 C342.221307,119.947903 342.31953,120.306091 342.428811,120.663534 C344.177583,126.383507 348.380719,130.678073 353.530485,132.745556 C353.747789,133.273608 353.986919,133.787372 354.246481,134.286105 C263.016697,156.48127 114.10228,192.837313 27.9949086,214.773928 C16.3560414,219.791902 13.1526771,147.58589 54.132148,95.5760147 C81.4517953,60.9027644 118.684966,36.6306045 165.83166,22.7595351 C214.176931,8.58962702 260.936789,11.0382735 306.111234,30.1054745 C310.323675,31.8834586 314.35766,33.8040689 318.217046,35.843213 C316.942736,39.5155394 316.780062,43.6108609 318.00358,47.6128107 C318.379998,48.8440156 318.870128,50.0091799 319.458936,51.1003086 Z" id="Combined-Shape" stroke="#000000" stroke-width="2" fill="#FFFFFF"></path>
        <path d="M6,197 L25.5,215" id="Path-2" stroke="#000000" stroke-width="2"></path>
        <circle id="Oval-3" fill="#000000" cx="114.5" cy="90.5" r="3.5"></circle>
        <circle id="Oval-3" fill="#000000" cx="100" cy="75" r="2"></circle>
        <circle id="Oval-3" fill="#000000" cx="96.5" cy="102.5" r="2.5"></circle>
    </g>
</svg>